<mxfile host="app.diagrams.net" modified="2023-03-21T09:30:17.022Z" agent="5.0 (Windows)" etag="l2bnSt1WQ1OYDsWtOVK9" version="21.0.8" type="github">
  <diagram name="Seite-1" id="S6JMopAROMMKiacywSWn">
    <mxGraphModel dx="1400" dy="1155" grid="1" gridSize="10" guides="1" tooltips="1" connect="1" arrows="1" fold="1" page="0" pageScale="1" pageWidth="827" pageHeight="1169" math="0" shadow="0">
      <root>
        <mxCell id="0" />
        <mxCell id="1" parent="0" />
        <mxCell id="DOXEsDd_RbeYN1ELh2i6-44" style="rounded=0;orthogonalLoop=1;jettySize=auto;html=1;exitX=0.5;exitY=1;exitDx=0;exitDy=0;exitPerimeter=0;entryX=0.502;entryY=0.101;entryDx=0;entryDy=0;entryPerimeter=0;dashed=1;endArrow=open;endFill=0;strokeWidth=1;dashPattern=8 8;" edge="1" parent="1" source="DOXEsDd_RbeYN1ELh2i6-19" target="DOXEsDd_RbeYN1ELh2i6-21">
          <mxGeometry relative="1" as="geometry" />
        </mxCell>
        <mxCell id="DOXEsDd_RbeYN1ELh2i6-19" value="UI" style="shape=folder;fontStyle=1;tabWidth=110;tabHeight=30;tabPosition=left;html=1;boundedLbl=1;labelInHeader=1;container=1;collapsible=0;whiteSpace=wrap;" vertex="1" parent="1">
          <mxGeometry x="80" y="-80" width="680" height="200" as="geometry" />
        </mxCell>
        <mxCell id="DOXEsDd_RbeYN1ELh2i6-20" value="" style="html=1;strokeColor=none;resizeWidth=1;resizeHeight=1;fillColor=none;part=1;connectable=0;allowArrows=0;deletable=0;whiteSpace=wrap;" vertex="1" parent="DOXEsDd_RbeYN1ELh2i6-19">
          <mxGeometry width="680" height="140" relative="1" as="geometry">
            <mxPoint y="30" as="offset" />
          </mxGeometry>
        </mxCell>
        <mxCell id="DOXEsDd_RbeYN1ELh2i6-32" value="" style="shape=folder;fontStyle=1;tabWidth=70;tabHeight=20;tabPosition=left;html=1;boundedLbl=1;labelInHeader=1;container=1;collapsible=0;whiteSpace=wrap;" vertex="1" parent="DOXEsDd_RbeYN1ELh2i6-19">
          <mxGeometry x="220" y="50" width="171.48" height="50" as="geometry" />
        </mxCell>
        <mxCell id="DOXEsDd_RbeYN1ELh2i6-33" value="Web" style="html=1;strokeColor=none;resizeWidth=1;resizeHeight=1;fillColor=none;part=1;connectable=0;allowArrows=0;deletable=0;whiteSpace=wrap;" vertex="1" parent="DOXEsDd_RbeYN1ELh2i6-32">
          <mxGeometry width="171.48" height="30" relative="1" as="geometry">
            <mxPoint y="20" as="offset" />
          </mxGeometry>
        </mxCell>
        <mxCell id="DOXEsDd_RbeYN1ELh2i6-34" value="" style="shape=folder;fontStyle=1;tabWidth=70;tabHeight=20;tabPosition=left;html=1;boundedLbl=1;labelInHeader=1;container=1;collapsible=0;whiteSpace=wrap;" vertex="1" parent="DOXEsDd_RbeYN1ELh2i6-19">
          <mxGeometry x="19.999999999999996" y="40" width="159.63" height="60" as="geometry" />
        </mxCell>
        <mxCell id="DOXEsDd_RbeYN1ELh2i6-35" value="AppFrame" style="html=1;strokeColor=none;resizeWidth=1;resizeHeight=1;fillColor=none;part=1;connectable=0;allowArrows=0;deletable=0;whiteSpace=wrap;" vertex="1" parent="DOXEsDd_RbeYN1ELh2i6-34">
          <mxGeometry width="159.63" height="36" relative="1" as="geometry">
            <mxPoint y="20" as="offset" />
          </mxGeometry>
        </mxCell>
        <mxCell id="DOXEsDd_RbeYN1ELh2i6-45" style="rounded=0;orthogonalLoop=1;jettySize=auto;html=1;exitX=0.5;exitY=1;exitDx=0;exitDy=0;exitPerimeter=0;entryX=0.502;entryY=0.108;entryDx=0;entryDy=0;entryPerimeter=0;dashed=1;endArrow=open;endFill=0;dashPattern=8 8;" edge="1" parent="1" source="DOXEsDd_RbeYN1ELh2i6-21" target="DOXEsDd_RbeYN1ELh2i6-36">
          <mxGeometry relative="1" as="geometry" />
        </mxCell>
        <mxCell id="DOXEsDd_RbeYN1ELh2i6-21" value="Domains" style="shape=folder;fontStyle=1;tabWidth=110;tabHeight=30;tabPosition=left;html=1;boundedLbl=1;labelInHeader=1;container=1;collapsible=0;whiteSpace=wrap;" vertex="1" parent="1">
          <mxGeometry x="80" y="160" width="680" height="290" as="geometry" />
        </mxCell>
        <mxCell id="DOXEsDd_RbeYN1ELh2i6-22" value="" style="html=1;strokeColor=none;resizeWidth=1;resizeHeight=1;fillColor=none;part=1;connectable=0;allowArrows=0;deletable=0;whiteSpace=wrap;" vertex="1" parent="DOXEsDd_RbeYN1ELh2i6-21">
          <mxGeometry width="680" height="203" relative="1" as="geometry">
            <mxPoint y="30" as="offset" />
          </mxGeometry>
        </mxCell>
        <mxCell id="DOXEsDd_RbeYN1ELh2i6-2" value="Structure" style="shape=folder;fontStyle=1;tabWidth=110;tabHeight=30;tabPosition=left;html=1;boundedLbl=1;labelInHeader=1;container=1;collapsible=0;whiteSpace=wrap;" vertex="1" parent="DOXEsDd_RbeYN1ELh2i6-21">
          <mxGeometry x="30.44776119402985" y="60" width="345.07462686567163" height="70" as="geometry" />
        </mxCell>
        <mxCell id="DOXEsDd_RbeYN1ELh2i6-3" value="" style="html=1;strokeColor=none;resizeWidth=1;resizeHeight=1;fillColor=none;part=1;connectable=0;allowArrows=0;deletable=0;whiteSpace=wrap;" vertex="1" parent="DOXEsDd_RbeYN1ELh2i6-2">
          <mxGeometry width="345.07462686567163" height="32.30769230769231" relative="1" as="geometry">
            <mxPoint y="30" as="offset" />
          </mxGeometry>
        </mxCell>
        <mxCell id="DOXEsDd_RbeYN1ELh2i6-16" value="Building" style="html=1;whiteSpace=wrap;" vertex="1" parent="DOXEsDd_RbeYN1ELh2i6-2">
          <mxGeometry x="71.20587538497986" y="38.89227053140097" width="60.2511253257522" height="15.217391304347826" as="geometry" />
        </mxCell>
        <mxCell id="DOXEsDd_RbeYN1ELh2i6-17" value="POI/Room" style="html=1;whiteSpace=wrap;" vertex="1" parent="DOXEsDd_RbeYN1ELh2i6-2">
          <mxGeometry x="147.88912579957355" y="38.89227053140097" width="60.2511253257522" height="15.217391304347826" as="geometry" />
        </mxCell>
        <mxCell id="DOXEsDd_RbeYN1ELh2i6-15" value="Location" style="html=1;whiteSpace=wrap;" vertex="1" parent="DOXEsDd_RbeYN1ELh2i6-2">
          <mxGeometry x="5.477375029613836" y="38.89227053140097" width="60.2511253257522" height="15.217391304347826" as="geometry" />
        </mxCell>
        <mxCell id="DOXEsDd_RbeYN1ELh2i6-18" value="Orb" style="html=1;whiteSpace=wrap;" vertex="1" parent="DOXEsDd_RbeYN1ELh2i6-2">
          <mxGeometry x="219.09500118455344" y="38.89227053140097" width="60.2511253257522" height="15.217391304347826" as="geometry" />
        </mxCell>
        <mxCell id="DOXEsDd_RbeYN1ELh2i6-23" value="&lt;div&gt;Business Logic&lt;/div&gt;" style="shape=folder;fontStyle=1;tabWidth=110;tabHeight=30;tabPosition=left;html=1;boundedLbl=1;labelInHeader=1;container=1;collapsible=0;whiteSpace=wrap;" vertex="1" parent="DOXEsDd_RbeYN1ELh2i6-21">
          <mxGeometry x="416.12" y="60" width="233.43" height="130" as="geometry" />
        </mxCell>
        <mxCell id="DOXEsDd_RbeYN1ELh2i6-24" value="" style="html=1;strokeColor=none;resizeWidth=1;resizeHeight=1;fillColor=none;part=1;connectable=0;allowArrows=0;deletable=0;whiteSpace=wrap;" vertex="1" parent="DOXEsDd_RbeYN1ELh2i6-23">
          <mxGeometry width="233.43" height="91" relative="1" as="geometry">
            <mxPoint y="30" as="offset" />
          </mxGeometry>
        </mxCell>
        <mxCell id="DOXEsDd_RbeYN1ELh2i6-30" value="Rule- Engine" style="html=1;whiteSpace=wrap;" vertex="1" parent="DOXEsDd_RbeYN1ELh2i6-23">
          <mxGeometry x="13.88" y="40" width="97.26" height="20" as="geometry" />
        </mxCell>
        <mxCell id="DOXEsDd_RbeYN1ELh2i6-31" value="Rule" style="html=1;whiteSpace=wrap;" vertex="1" parent="DOXEsDd_RbeYN1ELh2i6-23">
          <mxGeometry x="130.59" y="40" width="77.81" height="20" as="geometry" />
        </mxCell>
        <mxCell id="DOXEsDd_RbeYN1ELh2i6-47" value="Condition" style="html=1;whiteSpace=wrap;" vertex="1" parent="DOXEsDd_RbeYN1ELh2i6-23">
          <mxGeometry x="13.879999999999995" y="70" width="97.26" height="20" as="geometry" />
        </mxCell>
        <mxCell id="DOXEsDd_RbeYN1ELh2i6-48" value="Action" style="html=1;whiteSpace=wrap;" vertex="1" parent="DOXEsDd_RbeYN1ELh2i6-23">
          <mxGeometry x="120.86000000000001" y="70" width="97.26" height="20" as="geometry" />
        </mxCell>
        <mxCell id="DOXEsDd_RbeYN1ELh2i6-25" value="End User" style="shape=folder;fontStyle=1;tabWidth=110;tabHeight=30;tabPosition=left;html=1;boundedLbl=1;labelInHeader=1;container=1;collapsible=0;whiteSpace=wrap;" vertex="1" parent="DOXEsDd_RbeYN1ELh2i6-21">
          <mxGeometry x="40.6" y="160" width="189.4" height="70" as="geometry" />
        </mxCell>
        <mxCell id="DOXEsDd_RbeYN1ELh2i6-26" value="" style="html=1;strokeColor=none;resizeWidth=1;resizeHeight=1;fillColor=none;part=1;connectable=0;allowArrows=0;deletable=0;whiteSpace=wrap;" vertex="1" parent="DOXEsDd_RbeYN1ELh2i6-25">
          <mxGeometry width="189.4" height="63.4375" relative="1" as="geometry">
            <mxPoint y="30" as="offset" />
          </mxGeometry>
        </mxCell>
        <mxCell id="DOXEsDd_RbeYN1ELh2i6-27" value="Person" style="html=1;whiteSpace=wrap;" vertex="1" parent="DOXEsDd_RbeYN1ELh2i6-25">
          <mxGeometry x="26.71241962195192" y="40.005" width="53.420512820512826" height="21.875" as="geometry" />
        </mxCell>
        <mxCell id="DOXEsDd_RbeYN1ELh2i6-28" value="Device" style="html=1;whiteSpace=wrap;" vertex="1" parent="DOXEsDd_RbeYN1ELh2i6-25">
          <mxGeometry x="109.2713939809263" y="40.005" width="53.420512820512826" height="21.875" as="geometry" />
        </mxCell>
        <mxCell id="DOXEsDd_RbeYN1ELh2i6-42" value="Frame" style="html=1;whiteSpace=wrap;" vertex="1" parent="DOXEsDd_RbeYN1ELh2i6-21">
          <mxGeometry x="40.60388059701495" y="250" width="101.49253731343283" height="30" as="geometry" />
        </mxCell>
        <mxCell id="DOXEsDd_RbeYN1ELh2i6-43" value="InstitutionalUser" style="html=1;whiteSpace=wrap;" vertex="1" parent="DOXEsDd_RbeYN1ELh2i6-21">
          <mxGeometry x="157.32029850746272" y="250" width="101.49253731343283" height="30" as="geometry" />
        </mxCell>
        <mxCell id="DOXEsDd_RbeYN1ELh2i6-36" value="Technical Services" style="shape=folder;fontStyle=1;tabWidth=110;tabHeight=30;tabPosition=left;html=1;boundedLbl=1;labelInHeader=1;container=1;collapsible=0;whiteSpace=wrap;" vertex="1" parent="1">
          <mxGeometry x="80" y="520" width="680" height="280" as="geometry" />
        </mxCell>
        <mxCell id="DOXEsDd_RbeYN1ELh2i6-37" value="" style="html=1;strokeColor=none;resizeWidth=1;resizeHeight=1;fillColor=none;part=1;connectable=0;allowArrows=0;deletable=0;whiteSpace=wrap;" vertex="1" parent="DOXEsDd_RbeYN1ELh2i6-36">
          <mxGeometry width="680" height="196" relative="1" as="geometry">
            <mxPoint y="30" as="offset" />
          </mxGeometry>
        </mxCell>
        <mxCell id="DOXEsDd_RbeYN1ELh2i6-38" value="" style="shape=folder;fontStyle=1;tabWidth=70;tabHeight=20;tabPosition=left;html=1;boundedLbl=1;labelInHeader=1;container=1;collapsible=0;whiteSpace=wrap;" vertex="1" parent="DOXEsDd_RbeYN1ELh2i6-36">
          <mxGeometry x="30" y="60" width="120" height="50" as="geometry" />
        </mxCell>
        <mxCell id="DOXEsDd_RbeYN1ELh2i6-39" value="Server" style="html=1;strokeColor=none;resizeWidth=1;resizeHeight=1;fillColor=none;part=1;connectable=0;allowArrows=0;deletable=0;whiteSpace=wrap;" vertex="1" parent="DOXEsDd_RbeYN1ELh2i6-38">
          <mxGeometry width="120" height="30" relative="1" as="geometry">
            <mxPoint y="20" as="offset" />
          </mxGeometry>
        </mxCell>
        <mxCell id="DOXEsDd_RbeYN1ELh2i6-40" value="" style="shape=folder;fontStyle=1;tabWidth=70;tabHeight=20;tabPosition=left;html=1;boundedLbl=1;labelInHeader=1;container=1;collapsible=0;whiteSpace=wrap;" vertex="1" parent="DOXEsDd_RbeYN1ELh2i6-36">
          <mxGeometry x="185" y="60" width="130" height="50" as="geometry" />
        </mxCell>
        <mxCell id="DOXEsDd_RbeYN1ELh2i6-41" value="Persistence" style="html=1;strokeColor=none;resizeWidth=1;resizeHeight=1;fillColor=none;part=1;connectable=0;allowArrows=0;deletable=0;whiteSpace=wrap;" vertex="1" parent="DOXEsDd_RbeYN1ELh2i6-40">
          <mxGeometry width="130" height="30" relative="1" as="geometry">
            <mxPoint y="20" as="offset" />
          </mxGeometry>
        </mxCell>
      </root>
    </mxGraphModel>
  </diagram>
</mxfile>
